# xmcd
#
# Track frame offsets:
#	150
#	16546
#	31297
#	45759
#	59660
#	87026
#	97648
#	110019
#	127179
#	138151
#	153563
#	170853
#	185064
#	196482
#	214844
#
# Disc length: 3319 seconds
#
# Revision: 1
# Processed by: cddbd v1.5.2PL0 Copyright (c) Steve Scherf et al.
# Submitted via: audiograbber 1.83.01
#
DISCID=c90cf50f
DTITLE=Dreckpäck - Für eine Hand voll Dreck
DYEAR=2018
DGENRE=Bluegrass
TTITLE0=Hold Watcha Got
TTITLE1=I Wonder Where You Are Tonight
TTITLE2=Why You Been Gone So Long
TTITLE3=Blueridge Cabin Home
TTITLE4=Blue Diamond Mines
TTITLE5=Salty Dog Blues
TTITLE6=Honey You Don't Know My Mind
TTITLE7=Cry Cry
TTITLE8=Lodi
TTITLE9=Barnet Fair
TTITLE10=Dock Of The Bay
TTITLE11=Friend OfThe Devil
TTITLE12=Peppermint Twist
TTITLE13=Hard Times
TTITLE14=Me And Bobby McGee (Live Version)
EXTD=
EXTT0=
EXTT1=
EXTT2=
EXTT3=
EXTT4=
EXTT5=
EXTT6=
EXTT7=
EXTT8=
EXTT9=
EXTT10=
EXTT11=
EXTT12=
EXTT13=
EXTT14=
PLAYORDER=
